{
  "accessors": [
    {
      "bufferView": 2,
      "componentType": 5126,
      "count": 1877,
      "max": [
        46.873138427734375,
        0.61531102657318115,
        -13.700113296508789
      ],
      "min": [
        -46.737777709960938,
        -70.820655822753906,
        -78.704780578613281
      ],
      "type": "VEC3"
    },
    {
      "bufferView": 2,
      "byteOffset": 22524,
      "componentType": 5126,
      "count": 1877,
      "max": [
        0.99982064962387085,
        0.99930709600448608,
        0.99997824430465698
      ],
      "min": [
        -0.99981689453125,
        -0.99971133470535278,
        -0.99893248081207275
      ],
      "type": "VEC3"
    },
    {
      "bufferView": 3,
      "componentType": 5126,
      "count": 1877,
      "max": [
        0.99820828437805176,
        0.99828094244003296,
        0.99902397394180298,
        1
      ],
      "min": [
        -0.99981337785720825,
        -0.99915164709091187,
        -0.99996054172515869,
        1
      ],
      "type": "VEC4"
    },
    {
      "bufferView": 1,
      "componentType": 5126,
      "count": 1877,
      "max": [
        0.99559098482131958,
        0.99742001295089722
      ],
      "min": [
        0.0041570002213120461,
        0.01080000028014183
      ],
      "type": "VEC2"
    },
    {
      "bufferView": 0,
      "componentType": 5125,
      "count": 9822,
      "max": [
        1876
      ],
      "min": [
        0
      ],
      "type": "SCALAR"
    },
    {
      "bufferView": 2,
      "byteOffset": 45048,
      "componentType": 5126,
      "count": 2306,
      "max": [
        58.644363403320312,
        73.670867919921875,
        78.227813720703125
      ],
      "min": [
        -58.497390747070312,
        -73.57135009765625,
        -58.112262725830078
      ],
      "type": "VEC3"
    },
    {
      "bufferView": 2,
      "byteOffset": 72720,
      "componentType": 5126,
      "count": 2306,
      "max": [
        0.99995952844619751,
        0.99999487400054932,
        0.99979597330093384
      ],
      "min": [
        -0.99872332811355591,
        -0.99988174438476562,
        -0.99975645542144775
      ],
      "type": "VEC3"
    },
    {
      "bufferView": 3,
      "byteOffset": 30032,
      "componentType": 5126,
      "count": 2306,
      "max": [
        0.99981796741485596,
        0.99738919734954834,
        0.99996185302734375,
        1
      ],
      "min": [
        -0.99910938739776611,
        -0.99894446134567261,
        -0.9997977614402771,
        1
      ],
      "type": "VEC4"
    },
    {
      "bufferView": 1,
      "byteOffset": 15016,
      "componentType": 5126,
      "count": 2306,
      "max": [
        0.99336898326873779,
        0.99499702453613281
      ],
      "min": [
        0.0046370001509785652,
        0.003582000033929944
      ],
      "type": "VEC2"
    },
    {
      "bufferView": 0,
      "byteOffset": 39288,
      "componentType": 5125,
      "count": 12330,
      "max": [
        2305
      ],
      "min": [
        0
      ],
      "type": "SCALAR"
    }
  ],
  "asset": {
    "extras": {
      "author": "Aleksandr_Chub (https://sketchfab.com/DT7)",
      "license": "CC-BY-4.0 (http://creativecommons.org/licenses/by/4.0/)",
      "source": "https://sketchfab.com/models/26c05ba5d45d457b8d551bd1e79321de",
      "title": "Skull_Downloable"
    },
    "generator": "Sketchfab-3.19.6",
    "version": "2.0"
  },
  "bufferViews": [
    {
      "buffer": 0,
      "byteLength": 88608,
      "byteOffset": 0,
      "name": "floatBufferViews",
      "target": 34963
    },
    {
      "buffer": 0,
      "byteLength": 33464,
      "byteOffset": 88608,
      "byteStride": 8,
      "name": "floatBufferViews",
      "target": 34962
    },
    {
      "buffer": 0,
      "byteLength": 100392,
      "byteOffset": 122072,
      "byteStride": 12,
      "name": "floatBufferViews",
      "target": 34962
    },
    {
      "buffer": 0,
      "byteLength": 66928,
      "byteOffset": 222464,
      "byteStride": 16,
      "name": "floatBufferViews",
      "target": 34962
    }
  ],
  "buffers": [
    {
      "byteLength": 289392,
      "uri": "scene.bin"
    }
  ],
  "images": [
    {
      "uri": "textures/Scene_-_Root_baseColor.png"
    },
    {
      "uri": "textures/Scene_-_Root_normal.png"
    },
    {
      "uri": "textures/Scene_-_Root_metallicRoughness.png"
    }
  ],
  "materials": [
    {
      "doubleSided": false,
      "name": "Scene_-_Root",
      "normalTexture": {
        "index": 1,
        "scale": 1,
        "texCoord": 0
      },
      "occlusionTexture": {
        "index": 2,
        "strength": 1,
        "texCoord": 0
      },
      "pbrMetallicRoughness": {
        "baseColorFactor": [
          1,
          1,
          1,
          1
        ],
        "baseColorTexture": {
          "index": 0,
          "texCoord": 0
        },
        "metallicFactor": 0,
        "metallicRoughnessTexture": {
          "index": 2,
          "texCoord": 0
        },
        "roughnessFactor": 1
      }
    }
  ],
  "meshes": [
    {
      "primitives": [
        {
          "attributes": {
            "NORMAL": 1,
            "POSITION": 0,
            "TANGENT": 2,
            "TEXCOORD_0": 3
          },
          "indices": 4,
          "material": 0,
          "mode": 4
        }
      ]
    },
    {
      "primitives": [
        {
          "attributes": {
            "NORMAL": 6,
            "POSITION": 5,
            "TANGENT": 7,
            "TEXCOORD_0": 8
          },
          "indices": 9,
          "material": 0,
          "mode": 4
        }
      ]
    }
  ],
  "nodes": [
    {
      "children": [
        1
      ],
      "name": "RootNode (gltf orientation matrix)",
      "rotation": [
        -0.70710678118654746,
        -0,
        -0,
        0.70710678118654757
      ]
    },
    {
      "children": [
        2
      ],
      "matrix": [
        1,
        0,
        0,
        0,
        0,
        0.86454325914382935,
        -0.50255841016769409,
        0,
        0,
        0.50255841016769409,
        0.86454325914382935,
        0,
        0,
        0.12655891478061676,
        -0.0073440256528556347,
        1
      ],
      "name": "RootNode (model correction matrix)"
    },
    {
      "children": [
        3,
        4
      ],
      "name": "JustSkull_byDT7.obj.cleaner.materialmerger.gles"
    },
    {
      "mesh": 0,
      "name": ""
    },
    {
      "mesh": 1,
      "name": ""
    }
  ],
  "samplers": [
    {
      "magFilter": 9729,
      "minFilter": 9987,
      "wrapS": 10497,
      "wrapT": 10497
    }
  ],
  "scene": 0,
  "scenes": [
    {
      "name": "OSG_Scene",
      "nodes": [
        0
      ]
    }
  ],
  "textures": [
    {
      "sampler": 0,
      "source": 0
    },
    {
      "sampler": 0,
      "source": 1
    },
    {
      "sampler": 0,
      "source": 2
    }
  ]
}

